<?xml version="1.0" encoding="UTF-8" standalone="no"?>
<svg width="92px" height="58px" viewBox="0 0 92 58" version="1.1" xmlns="http://www.w3.org/2000/svg" xmlns:xlink="http://www.w3.org/1999/xlink" xmlns:sketch="http://www.bohemiancoding.com/sketch/ns">
    <!-- Generator: Sketch 3.5.1 (25234) - http://www.bohemiancoding.com/sketch -->
    <title>Group</title>
    <desc>Created with Sketch.</desc>
    <defs></defs>
    <g id="Page-1" stroke="none" stroke-width="1" fill="none" fill-rule="evenodd" sketch:type="MSPage">
        <g id="Group" sketch:type="MSLayerGroup" transform="translate(1.000000, 0.000000)">
            <path d="M79.8,4.5 L10.3,4.5 L10.3,49.5 L36.4,49.5 L36.4,51.5 C36.4,52.3 36.8,53.1 37.4,53.5 L37.4,53.5 C37.8,53.8 38.3,54 38.9,54 L51.2,54 C51.8,54 52.3,53.8 52.7,53.5 L52.7,53.5 C53.3,53 53.7,52.3 53.7,51.5 L53.7,49.5 L79.8,49.5 L79.8,4.5 L79.8,4.5 L79.8,4.5 L79.8,4.5 Z M52.7,51.5 C52.7,52.3 52,53 51.2,53 L38.9,53 C38.1,53 37.4,52.3 37.4,51.5 L37.4,49.5 L52.7,49.5 L52.7,51.5 L52.7,51.5 Z M78.4,48 L11.4,48 L11.4,6 L78.4,6 L78.4,48 L78.4,48 Z" id="Shape" sketch:type="MSShapeGroup"></path>
            <path d="M79.8,1.4 C82.5,1.4 82.9,3.3 82.9,4.5 L82.9,49.5 L82.9,50.5 L83.9,50.5 L88,50.5 C88.6,50.5 89,51 89,51.5 C89,54.3 86.7,56.6 83.9,56.6 L6.2,56.6 C3.4,56.6 1.1,54.3 1.1,51.5 C1.1,50.9 1.6,50.5 2.1,50.5 L6.2,50.5 L7.2,50.5 L7.2,49.5 L7.2,4.5 C7.2,2.8 8.6,1.4 10.3,1.4 L79.8,1.4 L79.8,1.4 Z M9.2,50.5 L10.2,50.5 L35.3,50.5 L35.3,51.5 C35.3,52.6 35.8,53.7 36.7,54.3 C37.3,54.8 38.1,55 38.8,55 L51.1,55 C51.9,55 52.6,54.8 53.2,54.3 C54.1,53.6 54.6,52.6 54.6,51.5 L54.6,50.5 L79.7,50.5 L80.7,50.5 L80.7,49.5 L80.7,4.5 L80.7,3.5 L79.7,3.5 L10.2,3.5 L9.2,3.5 L9.2,4.5 L9.2,49.5 L9.2,50.5 L9.2,50.5 Z M79.8,0.4 L10.2,0.4 C7.9,0.4 6.1,2.2 6.1,4.5 L6.1,49.5 L2,49.5 C0.9,49.5 0,50.4 0,51.5 C0,54.9 2.8,57.6 6.1,57.6 L6.1,57.6 L83.8,57.6 L83.8,57.6 C87.2,57.6 89.9,54.8 89.9,51.5 C89.9,50.4 89,49.5 87.9,49.5 L83.8,49.5 L83.8,4.5 C83.9,2.7 83,0.4 79.8,0.4 L79.8,0.4 L79.8,0.4 Z M10.2,49.5 L10.2,4.5 L79.7,4.5 L79.7,4.5 L79.7,49.5 L53.7,49.5 L53.7,51.5 C53.7,52.3 53.3,53.1 52.7,53.5 L52.7,53.5 C52.3,53.8 51.8,54 51.2,54 L38.9,54 C38.3,54 37.8,53.8 37.4,53.5 L37.4,53.5 C36.8,53 36.4,52.3 36.4,51.5 L36.4,49.5 L10.2,49.5 L10.2,49.5 L10.2,49.5 Z" id="Shape" stroke="#67727E" stroke-width="0.75" fill="#67727E" sketch:type="MSShapeGroup"></path>
            <path d="M51.7,50.5 L51.7,51.5 C51.7,51.8 51.5,52 51.2,52 L38.9,52 C38.6,52 38.4,51.8 38.4,51.5 L38.4,50.5 L51.7,50.5 L51.7,50.5 Z M52.7,49.5 L37.3,49.5 L37.3,51.5 C37.3,52.3 38,53 38.8,53 L51.1,53 C51.9,53 52.6,52.3 52.6,51.5 L52.6,49.5 L52.7,49.5 L52.7,49.5 Z" id="Shape" fill="#67727E" sketch:type="MSShapeGroup"></path>
        </g>
    </g>
</svg>
