<?xml version="1.0" encoding="UTF-8" standalone="no"?>
<svg width="81px" height="57px" viewBox="0 0 81 57" version="1.1" xmlns="http://www.w3.org/2000/svg" xmlns:xlink="http://www.w3.org/1999/xlink" xmlns:sketch="http://www.bohemiancoding.com/sketch/ns">
    <!-- Generator: Sketch 3.5.1 (25234) - http://www.bohemiancoding.com/sketch -->
    <title>rkt-profile + rkt-profile copy 2 + rkt-profile copy + Path + Path</title>
    <desc>Created with Sketch.</desc>
    <defs></defs>
    <g id="Page-1" stroke="none" stroke-width="1" fill="none" fill-rule="evenodd" sketch:type="MSPage">
        <g id="rkt-profile-+-rkt-profile-copy-2-+-rkt-profile-copy-+-Path-+-Path" sketch:type="MSLayerGroup">
            <path d="M25.4319349,5.5703125 C23.7820979,5.5703125 22.2288172,5.88401129 20.7720462,6.51141827 C19.3152753,7.13882525 18.0428137,8.00149691 16.9546233,9.09945913 C15.8664329,10.1974214 15.0064244,11.4696442 14.3745719,12.9161659 C13.7427194,14.3626875 13.4267979,15.9224676 13.4267979,17.5955529 C13.4267979,19.2686382 13.7427194,20.8284182 14.3745719,22.2749399 C15.0064244,23.7214616 15.8664329,24.9936844 16.9546233,26.0916466 C18.0428137,27.1896089 19.3152753,28.0522805 20.7720462,28.6796875 C22.2288172,29.3070945 23.7820979,29.6207933 25.4319349,29.6207933 C27.0817719,29.6207933 28.6350526,29.3070945 30.0918236,28.6796875 C31.5485946,28.0522805 32.8210562,27.1896089 33.9092466,26.0916466 C34.9974369,24.9936844 35.8574455,23.7214616 36.4892979,22.2749399 C37.1211504,20.8284182 37.4370719,19.2686382 37.4370719,17.5955529 C37.4370719,15.9224676 37.1211504,14.3626875 36.4892979,12.9161659 C35.8574455,11.4696442 34.9974369,10.1974214 33.9092466,9.09945913 C32.8210562,8.00149691 31.5485946,7.13882525 30.0918236,6.51141827 C28.6350526,5.88401129 27.0817719,5.5703125 25.4319349,5.5703125 L25.4319349,5.5703125 Z M25.4319349,32.2872596 C23.3959658,32.2872596 21.4916613,31.90385 19.718964,31.1370192 C17.9462668,30.3701885 16.3929861,29.3245259 15.0590753,28 C13.7251646,26.6754741 12.6720929,25.1156941 11.8998288,23.320613 C11.1275646,21.5255319 10.7414384,19.6171976 10.7414384,17.5955529 C10.7414384,15.5739082 11.1275646,13.6742877 11.8998288,11.8966346 C12.6720929,10.1189815 13.7251646,8.55920142 15.0590753,7.2172476 C16.3929861,5.87529377 17.9462668,4.8209173 19.718964,4.05408654 C21.4916613,3.28725578 23.3959658,2.90384615 25.4319349,2.90384615 C27.4328011,2.90384615 29.3283301,3.28725578 31.1185788,4.05408654 C32.9088274,4.8209173 34.4621081,5.87529377 35.7784675,7.2172476 C37.0948268,8.55920142 38.1391229,10.1189815 38.911387,11.8966346 C39.6836511,13.6742877 40.0697774,15.5739082 40.0697774,17.5955529 C40.0697774,19.6171976 39.6836511,21.5255319 38.911387,23.320613 C38.1391229,25.1156941 37.0948268,26.6754741 35.7784675,28 C34.4621081,29.3245259 32.9088274,30.3701885 31.1185788,31.1370192 C29.3283301,31.90385 27.4328011,32.2872596 25.4319349,32.2872596 L25.4319349,32.2872596 Z M25.3266267,37.6201923 C23.0098343,37.6201923 20.8510374,37.7770417 18.8501712,38.0907452 C16.8493051,38.4044487 15.0152053,38.8749969 13.3478168,39.5024038 C11.6804283,40.1298108 10.1885768,40.9053439 8.87221747,41.8290264 C7.55585814,42.7527089 6.4413573,43.8070854 5.52868151,44.9921875 C4.1245649,46.8046966 3.29965876,48.4777568 3.05393836,50.0114183 C2.80821795,51.5450798 2.68535959,52.311899 2.68535959,52.311899 C2.68535959,52.6953144 2.81699355,53.0177271 3.08026541,53.2791466 C3.34353728,53.5405662 3.65068318,53.671274 4.00171233,53.671274 L46.6515411,53.671274 C47.0376732,53.671274 47.3535947,53.5405662 47.5993151,53.2791466 C47.8450355,53.0177271 47.9678938,52.6953144 47.9678938,52.311899 C47.9678938,52.311899 47.8450355,51.5450798 47.5993151,50.0114183 C47.3535947,48.4777568 46.5462397,46.8046966 45.177226,44.9921875 C44.2645502,43.8070854 43.1500494,42.7527089 41.8336901,41.8290264 C40.5173307,40.9053439 39.0254792,40.1298108 37.3580908,39.5024038 C35.6907023,38.8749969 33.8478269,38.4044487 31.8294092,38.0907452 C29.8109916,37.7770417 27.6434191,37.6201923 25.3266267,37.6201923 L25.3266267,37.6201923 Z M46.6515411,56.3377404 L4.00171233,56.3377404 C2.91352196,56.3377404 1.98330866,55.9456169 1.21104452,55.1613582 C0.438780385,54.3770994 0.0526541096,53.4272892 0.0526541096,52.311899 C0.0526541096,52.2421872 0.193063664,51.3010908 0.473886986,49.4885817 C0.754710308,47.6760727 1.7024748,45.6893137 3.3172089,43.5282452 C4.2298847,42.2734312 5.32683435,41.1493439 6.60809075,40.1559495 C7.88934716,39.1625551 9.33732069,38.2998835 10.9520548,37.5679087 C12.8827151,36.6965101 15.0590632,36.0429709 17.4811644,35.6072716 C19.9032655,35.1715723 22.5183935,34.953726 25.3266267,34.953726 C28.1699628,34.953726 30.7938664,35.1715723 33.1984161,35.6072716 C35.6029658,36.0429709 37.7880895,36.6965101 39.7538527,37.5679087 C41.3334839,38.2998835 42.7639063,39.1625551 44.0451627,40.1559495 C45.3264191,41.1493439 46.4409199,42.2734312 47.3886986,43.5282452 C49.0034327,45.6893137 49.9511972,47.6760727 50.2320205,49.4885817 C50.5128439,51.3010908 50.6532534,52.2421872 50.6532534,52.311899 C50.6532534,53.4272892 50.2671271,54.3770994 49.494863,55.1613582 C48.7225989,55.9456169 47.7748344,56.3377404 46.6515411,56.3377404 L46.6515411,56.3377404 Z" id="rkt-profile" fill="#67727E" sketch:type="MSShapeGroup"></path>
            <path d="M55.7080479,5.12800481 C54.0582109,5.12800481 52.5049302,5.44170359 51.0481592,6.06911058 C49.5913883,6.69651756 48.3189267,7.55918922 47.2307363,8.65715144 C46.1425459,9.75511366 45.2825374,11.0273365 44.6506849,12.4738582 C44.0188325,13.9203798 43.702911,15.4801599 43.702911,17.1532452 C43.702911,18.8263305 44.0188325,20.3861106 44.6506849,21.8326322 C45.2825374,23.2791539 46.1425459,24.5513767 47.2307363,25.6493389 C48.3189267,26.7473012 49.5913883,27.6099728 51.0481592,28.2373798 C52.5049302,28.8647868 54.0582109,29.1784856 55.7080479,29.1784856 C57.357885,29.1784856 58.9111657,28.8647868 60.3679366,28.2373798 C61.8247076,27.6099728 63.0971692,26.7473012 64.1853596,25.6493389 C65.27355,24.5513767 66.1335585,23.2791539 66.765411,21.8326322 C67.3972634,20.3861106 67.7131849,18.8263305 67.7131849,17.1532452 C67.7131849,15.4801599 67.3972634,13.9203798 66.765411,12.4738582 C66.1335585,11.0273365 65.27355,9.75511366 64.1853596,8.65715144 C63.0971692,7.55918922 61.8247076,6.69651756 60.3679366,6.06911058 C58.9111657,5.44170359 57.357885,5.12800481 55.7080479,5.12800481 L55.7080479,5.12800481 Z M55.7080479,31.8449519 C53.6720789,31.8449519 51.7677743,31.4615423 49.9950771,30.6947115 C48.2223798,29.9278808 46.6690991,28.8822182 45.3351884,27.5576923 C44.0012776,26.2331665 42.9482059,24.6733864 42.1759418,22.8783053 C41.4036776,21.0832242 41.0175514,19.1748899 41.0175514,17.1532452 C41.0175514,15.1316005 41.4036776,13.23198 42.1759418,11.4543269 C42.9482059,9.6766738 44.0012776,8.11689373 45.3351884,6.7749399 C46.6690991,5.43298608 48.2223798,4.3786096 49.9950771,3.61177885 C51.7677743,2.84494809 53.6720789,2.46153846 55.7080479,2.46153846 C57.7089141,2.46153846 59.6044431,2.84494809 61.3946918,3.61177885 C63.1849405,4.3786096 64.7382212,5.43298608 66.0545805,6.7749399 C67.3709398,8.11689373 68.4152359,9.6766738 69.1875,11.4543269 C69.9597641,13.23198 70.3458904,15.1316005 70.3458904,17.1532452 C70.3458904,19.1748899 69.9597641,21.0832242 69.1875,22.8783053 C68.4152359,24.6733864 67.3709398,26.2331665 66.0545805,27.5576923 C64.7382212,28.8822182 63.1849405,29.9278808 61.3946918,30.6947115 C59.6044431,31.4615423 57.7089141,31.8449519 55.7080479,31.8449519 L55.7080479,31.8449519 Z M55.6027397,37.1778846 C53.2859473,37.1778846 51.1271504,37.334734 49.1262842,37.6484375 C47.1254181,37.962141 45.2913183,38.4326892 43.6239298,39.0600962 C41.9565413,39.6875031 40.4646898,40.4630362 39.1483305,41.3867188 C37.8319712,42.3104013 36.7174703,43.3647777 35.8047945,44.5498798 C34.4006779,46.3623889 33.5757718,48.0354491 33.3300514,49.5691106 C33.084331,51.1027721 32.9614726,51.8695913 32.9614726,51.8695913 C32.9614726,52.2530067 33.0931066,52.5754194 33.3563784,52.8368389 C33.6196503,53.0982585 33.9267962,53.2289663 34.2778253,53.2289663 L76.9276541,53.2289663 C77.3137862,53.2289663 77.6297077,53.0982585 77.8754281,52.8368389 C78.1211485,52.5754194 78.2440068,52.2530067 78.2440068,51.8695913 C78.2440068,51.8695913 78.1211485,51.1027721 77.8754281,49.5691106 C77.6297077,48.0354491 76.8223527,46.3623889 75.453339,44.5498798 C74.5406632,43.3647777 73.4261624,42.3104013 72.1098031,41.3867188 C70.7934438,40.4630362 69.3015922,39.6875031 67.6342038,39.0600962 C65.9668153,38.4326892 64.1239399,37.962141 62.1055223,37.6484375 C60.0871046,37.334734 57.9195321,37.1778846 55.6027397,37.1778846 L55.6027397,37.1778846 Z M76.9276541,55.8954327 L34.2778253,55.8954327 C33.189635,55.8954327 32.2594217,55.5033092 31.4871575,54.7190505 C30.7148934,53.9347918 30.3287671,52.9849815 30.3287671,51.8695913 C30.3287671,51.7998795 30.4691767,50.8587831 30.75,49.046274 C31.0308233,47.233765 31.9785878,45.247006 33.5933219,43.0859375 C34.5059977,41.8311235 35.6029474,40.7070362 36.8842038,39.7136418 C38.1654602,38.7202474 39.6134337,37.8575758 41.2281678,37.125601 C43.1588281,36.2542024 45.3351762,35.6006632 47.7572774,35.1649639 C50.1793785,34.7292646 52.7945065,34.5114183 55.6027397,34.5114183 C58.4460759,34.5114183 61.0699794,34.7292646 63.4745291,35.1649639 C65.8790788,35.6006632 68.0642025,36.2542024 70.0299658,37.125601 C71.6095969,37.8575758 73.0400193,38.7202474 74.3212757,39.7136418 C75.6025321,40.7070362 76.7170329,41.8311235 77.6648116,43.0859375 C79.2795457,45.247006 80.2273102,47.233765 80.5081336,49.046274 C80.7889569,50.8587831 80.9293664,51.7998795 80.9293664,51.8695913 C80.9293664,52.9849815 80.5432402,53.9347918 79.770976,54.7190505 C78.9987119,55.5033092 78.0509474,55.8954327 76.9276541,55.8954327 L76.9276541,55.8954327 Z" id="rkt-profile-copy-2" fill="#67727E" sketch:type="MSShapeGroup"></path>
            <g id="rkt-profile-copy-+-Path-+-Path" transform="translate(15.726027, 0.000000)" sketch:type="MSShapeGroup">
                <path d="M25.3528716,2.67168448 C23.7047514,2.67168448 22.153087,2.98599716 20.6978319,3.61463194 C19.2425768,4.24326673 17.9714393,5.10762659 16.8843813,6.20773747 C15.7973233,7.30784834 14.9382096,8.58256087 14.3070147,10.0319133 C13.6758197,11.4812657 13.3602269,13.0440982 13.3602269,14.7204576 C13.3602269,16.3968171 13.6758197,17.9596495 14.3070147,19.409002 C14.9382096,20.8583544 15.7973233,22.1330669 16.8843813,23.2331778 C17.9714393,24.3332887 19.2425768,25.1976485 20.6978319,25.8262833 C22.153087,26.4549181 23.7047514,26.7692308 25.3528716,26.7692308 C27.0009918,26.7692308 28.5526562,26.4549181 30.0079113,25.8262833 C31.4631664,25.1976485 32.7343039,24.3332887 33.8213619,23.2331778 C34.9084199,22.1330669 35.7675335,20.8583544 36.3987285,19.409002 C37.0299235,17.9596495 37.3455162,16.3968171 37.3455162,14.7204576 C37.3455162,13.0440982 37.0299235,11.4812657 36.3987285,10.0319133 C35.7675335,8.58256087 34.9084199,7.30784834 33.8213619,6.20773747 C32.7343039,5.10762659 31.4631664,4.24326673 30.0079113,3.61463194 C28.5526562,2.98599716 27.0009918,2.67168448 25.3528716,2.67168448 L25.3528716,2.67168448 Z M25.3528716,29.4409152 C23.3190211,29.4409152 21.4166981,29.0567553 19.6458455,28.2884239 C17.8749929,27.5200925 16.3233285,26.4723836 14.9908058,25.1452657 C13.6582831,23.8181478 12.6063072,22.2553153 11.8348467,20.4567214 C11.0633862,18.6581274 10.6776617,16.7460586 10.6776617,14.7204576 C10.6776617,12.6948566 11.0633862,10.7915188 11.8348467,9.01038687 C12.6063072,7.22925498 13.6582831,5.6664225 14.9908058,4.32184254 C16.3233285,2.97726258 17.8749929,1.92082275 19.6458455,1.15249134 C21.4166981,0.38415994 23.3190211,0 25.3528716,0 C27.3516557,0 29.2452122,0.38415994 31.033598,1.15249134 C32.8219838,1.92082275 34.3736482,2.97726258 35.6886377,4.32184254 C37.0036272,5.6664225 38.0468366,7.22925498 38.8182972,9.01038687 C39.5897577,10.7915188 39.9754822,12.6948566 39.9754822,14.7204576 C39.9754822,16.7460586 39.5897577,18.6581274 38.8182972,20.4567214 C38.0468366,22.2553153 37.0036272,23.8181478 35.6886377,25.1452657 C34.3736482,26.4723836 32.8219838,27.5200925 31.033598,28.2884239 C29.2452122,29.0567553 27.3516557,29.4409152 25.3528716,29.4409152 L25.3528716,29.4409152 Z M18.7779568,38.2557579 C16.7791726,38.5700753 14.9469814,39.0415444 13.281328,39.6701791 C11.6156745,40.2988139 10.1253754,41.0758647 8.81038587,42.0013548 C7.49539633,42.9268449 6.38205522,43.9832847 5.47032914,45.170706 C4.06767363,46.9867621 3.24362588,48.6630963 2.99816116,50.1997591 C2.75269645,51.736422 2.62996593,52.5047418 2.62996593,52.5047418 C2.62996593,52.8889075 2.76146291,53.2119511 3.02446082,53.4738823 C3.28745873,53.7358134 3.59428502,53.8667771 3.9449489,53.8667771 L46.550397,53.8667771 C46.9361273,53.8667771 47.25172,53.7358134 47.4971847,53.4738823 C47.7426494,53.2119511 47.86538,52.8889075 47.86538,52.5047418 C47.86538,52.5047418 47.7426494,51.736422 47.4971847,50.1997591 C47.25172,48.6630963 46.4452052,46.9867621 45.0776161,45.170706 C44.16589,43.9832847 43.0525489,42.9268449 41.7375593,42.0013548 C40.4225698,41.0758647 38.9322707,40.2988139 37.2666173,39.6701791 C35.6009638,39.0415444 33.7600061,38.5700753 31.7436888,38.2557579 C29.7273715,37.9414405 27.5620545,37.7842842 25.2476729,37.7842842 C22.9332914,37.7842842 20.7767409,37.9414405 18.7779568,38.2557579 Z M46.550397,56.5384615 L3.9449489,56.5384615 C2.85789088,56.5384615 1.92864554,56.1455707 1.15718501,55.3597772 C0.385724479,54.5739837 0,53.6223148 0,52.5047418 C0,52.4348935 0.140263447,51.4919555 0.420794549,49.6758994 C0.701325651,47.8598434 1.64810392,45.8691964 3.26115776,43.7038988 C4.17288384,42.4466293 5.26869202,41.3203422 6.54861517,40.3250038 C7.82853832,39.3296654 9.27500512,38.4653055 10.888059,37.7318982 C12.8167103,36.8587944 14.9907937,36.2039763 17.4103745,35.7674244 C19.8299552,35.3308724 22.4423619,35.1125997 25.2476729,35.1125997 C28.0880504,35.1125997 30.7092235,35.3308724 33.1112711,35.7674244 C35.5133186,36.2039763 37.6961685,36.8587944 39.6598862,37.7318982 C41.2378737,38.4653055 42.6668076,39.3296654 43.9467307,40.3250038 C45.2266539,41.3203422 46.339995,42.4466293 47.2867875,43.7038988 C48.8998413,45.8691964 49.8466196,47.8598434 50.1271507,49.6758994 C50.4076818,51.4919555 50.5479452,52.4348935 50.5479452,52.5047418 C50.5479452,53.6223148 50.1622207,54.5739837 49.3907602,55.3597772 C48.6192997,56.1455707 47.6725214,56.5384615 46.550397,56.5384615 L46.550397,56.5384615 Z" id="rkt-profile-copy" fill="#67727E"></path>
                <path d="M25.2476729,37.7842842 C22.9332914,37.7842842 20.7767409,37.9414405 18.7779568,38.2557579 C16.7791726,38.5700753 14.9469814,39.0415444 13.281328,39.6701791 C11.6156745,40.2988139 10.1253754,41.0758647 8.81038587,42.0013548 C7.49539633,42.9268449 6.38205522,43.9832847 5.47032914,45.170706 C4.06767363,46.9867621 3.24362588,48.6630963 2.99816116,50.1997591 C2.75269645,51.736422 2.62996593,52.5047418 2.62996593,52.5047418 C2.62996593,52.8889075 2.76146291,53.2119511 3.02446082,53.4738823 C3.28745873,53.7358134 3.59428502,53.8667771 3.9449489,53.8667771 L46.550397,53.8667771 C46.9361273,53.8667771 47.25172,53.7358134 47.4971847,53.4738823 C47.7426494,53.2119511 47.86538,52.8889075 47.86538,52.5047418 C47.86538,52.5047418 47.7426494,51.736422 47.4971847,50.1997591 C47.25172,48.6630963 46.4452052,46.9867621 45.0776161,45.170706 C44.16589,43.9832847 43.0525489,42.9268449 41.7375593,42.0013548 C40.4225698,41.0758647 38.9322707,40.2988139 37.2666173,39.6701791 C35.6009638,39.0415444 33.7600061,38.5700753 31.7436888,38.2557579 C29.7273715,37.9414405 27.5620545,37.7842842 25.2476729,37.7842842 L25.2476729,37.7842842 Z" id="Path" fill="#FFFFFF"></path>
                <path d="M25.3528716,2.67168448 C23.7047514,2.67168448 22.153087,2.98599716 20.6978319,3.61463194 C19.2425768,4.24326673 17.9714393,5.10762659 16.8843813,6.20773747 C15.7973233,7.30784834 14.9382096,8.58256087 14.3070147,10.0319133 C13.6758197,11.4812657 13.3602269,13.0440982 13.3602269,14.7204576 C13.3602269,16.3968171 13.6758197,17.9596495 14.3070147,19.409002 C14.9382096,20.8583544 15.7973233,22.1330669 16.8843813,23.2331778 C17.9714393,24.3332887 19.2425768,25.1976485 20.6978319,25.8262833 C22.153087,26.4549181 23.7047514,26.7692308 25.3528716,26.7692308 C27.0009918,26.7692308 28.5526562,26.4549181 30.0079113,25.8262833 C31.4631664,25.1976485 32.7343039,24.3332887 33.8213619,23.2331778 C34.9084199,22.1330669 35.7675335,20.8583544 36.3987285,19.409002 C37.0299235,17.9596495 37.3455162,16.3968171 37.3455162,14.7204576 C37.3455162,13.0440982 37.0299235,11.4812657 36.3987285,10.0319133 C35.7675335,8.58256087 34.9084199,7.30784834 33.8213619,6.20773747 C32.7343039,5.10762659 31.4631664,4.24326673 30.0079113,3.61463194 C28.5526562,2.98599716 27.0009918,2.67168448 25.3528716,2.67168448 L25.3528716,2.67168448 Z" id="Path" fill="#FFFFFF"></path>
            </g>
        </g>
    </g>
</svg>
