<?xml version="1.0" encoding="UTF-8" standalone="no"?>
<svg width="58px" height="58px" viewBox="0 0 58 58" version="1.1" xmlns="http://www.w3.org/2000/svg" xmlns:xlink="http://www.w3.org/1999/xlink" xmlns:sketch="http://www.bohemiancoding.com/sketch/ns">
    <!-- Generator: Sketch 3.5.1 (25234) - http://www.bohemiancoding.com/sketch -->
    <title>Artboard 1</title>
    <desc>Created with Sketch.</desc>
    <defs></defs>
    <g id="Page-1" stroke="none" stroke-width="1" fill="none" fill-rule="evenodd" sketch:type="MSPage">
        <g id="Artboard-1" sketch:type="MSArtboardGroup" fill="#67727E">
            <path d="M44.890625,54.4375 C45.2031266,54.7500016 45.5546855,54.9843742 45.9453125,55.140625 C46.3359395,55.2968758 46.734373,55.375 47.140625,55.375 C47.5781272,55.375 47.9921855,55.2890634 48.3828125,55.1171875 C48.7734395,54.9453116 49.1249984,54.7187514 49.4375,54.4375 C49.7187514,54.1249984 49.9453116,53.7734395 50.1171875,53.3828125 C50.2890634,52.9921855 50.375,52.5781272 50.375,52.140625 C50.375,51.734373 50.2890634,51.3359395 50.1171875,50.9453125 C49.9453116,50.5546855 49.7031266,50.2187514 49.390625,49.9375 L29.421875,29.921875 C29.2343741,29.7343741 29.1171877,29.5078138 29.0703125,29.2421875 C29.0234373,28.9765612 29.0468745,28.7343761 29.140625,28.515625 C29.4843767,27.7656212 29.7421866,27.0000039 29.9140625,26.21875 C30.0859384,25.4374961 30.171875,24.6406291 30.171875,23.828125 C30.171875,22.2656172 29.875003,20.7968819 29.28125,19.421875 C28.687497,18.0468681 27.8750052,16.8515676 26.84375,15.8359375 C25.8124948,14.8203074 24.6093819,14.015628 23.234375,13.421875 C21.8593681,12.828122 20.3906328,12.53125 18.828125,12.53125 C18.3281225,12.53125 17.8359399,12.5624997 17.3515625,12.625 C16.8671851,12.6875003 16.3906273,12.7656245 15.921875,12.859375 L22.25,19.1875 C22.3750006,19.3125006 22.4687497,19.4531242 22.53125,19.609375 C22.5937503,19.7656258 22.625,19.9218742 22.625,20.078125 L22.625,26.359375 C22.625,26.7031267 22.5000013,26.9999988 22.25,27.25 C21.9999987,27.5000012 21.7031267,27.625 21.359375,27.625 L15.03125,27.625 C14.8749992,27.625 14.7187508,27.5937503 14.5625,27.53125 C14.4062492,27.4687497 14.2656256,27.3750006 14.140625,27.25 L7.859375,20.96875 C7.73437438,21.4375023 7.64062531,21.9140601 7.578125,22.3984375 C7.51562469,22.8828149 7.484375,23.3749975 7.484375,23.875 C7.484375,25.4375078 7.78124703,26.9062431 8.375,28.28125 C8.96875297,29.6562569 9.78124484,30.8515574 10.8125,31.8671875 C11.8437552,32.8828176 13.0468681,33.687497 14.421875,34.28125 C15.7968819,34.875003 17.2656172,35.171875 18.828125,35.171875 C19.6406291,35.171875 20.4374961,35.0937508 21.21875,34.9375 C22.0000039,34.7812492 22.7499964,34.5312517 23.46875,34.1875 C23.7187513,34.0624994 23.9765612,34.0312497 24.2421875,34.09375 C24.5078138,34.1562503 24.7343741,34.2656242 24.921875,34.421875 L44.890625,54.4375 Z M47.140625,57.859375 C46.3906212,57.859375 45.6718784,57.7187514 44.984375,57.4375 C44.2968716,57.1562486 43.6875027,56.7500027 43.15625,56.21875 L23.703125,36.8125 C22.9218711,37.0937514 22.1250041,37.3124992 21.3125,37.46875 C20.4999959,37.6250008 19.6718792,37.703125 18.828125,37.703125 C16.9218655,37.703125 15.1250084,37.3359412 13.4375,36.6015625 C11.7499916,35.8671838 10.2812563,34.8750063 9.03125,33.625 C7.78124375,32.3749937 6.79687859,30.9140709 6.078125,29.2421875 C5.35937141,27.5703041 5,25.7656347 5,23.828125 C5,22.8593702 5.10156148,21.8984423 5.3046875,20.9453125 C5.50781352,19.9921827 5.81249797,19.0625045 6.21875,18.15625 C6.28125031,17.9687491 6.39843664,17.8125006 6.5703125,17.6875 C6.74218836,17.5624994 6.92187406,17.4687503 7.109375,17.40625 C7.32812609,17.3749998 7.53124906,17.3906247 7.71875,17.453125 C7.90625094,17.5156253 8.07812422,17.6249992 8.234375,17.78125 L15.59375,25.09375 L20.09375,25.09375 L20.09375,20.59375 L12.734375,13.234375 C12.5781242,13.0781242 12.4687503,12.9062509 12.40625,12.71875 C12.3437497,12.5312491 12.3437497,12.3281261 12.40625,12.109375 C12.4375002,11.9218741 12.5156244,11.7421884 12.640625,11.5703125 C12.7656256,11.3984366 12.9218741,11.2812503 13.109375,11.21875 C13.9843794,10.812498 14.9062452,10.5078135 15.875,10.3046875 C16.8437548,10.1015615 17.82812,10 18.828125,10 C20.7343845,10 22.5312416,10.3593714 24.21875,11.078125 C25.9062584,11.7968786 27.3749937,12.7890562 28.625,14.0546875 C29.8750063,15.3203188 30.8671838,16.7890541 31.6015625,18.4609375 C32.3359412,20.1328209 32.703125,21.9218655 32.703125,23.828125 C32.703125,24.6718792 32.6250008,25.4999959 32.46875,26.3125 C32.3124992,27.1250041 32.0781266,27.9218711 31.765625,28.703125 L51.171875,48.109375 C51.7343778,48.6406277 52.1562486,49.257809 52.4375,49.9609375 C52.7187514,50.664066 52.859375,51.3906212 52.859375,52.140625 C52.859375,52.8906288 52.7187514,53.617184 52.4375,54.3203125 C52.1562486,55.023441 51.7500027,55.6406223 51.21875,56.171875 C50.6874973,56.7343778 50.070316,57.1562486 49.3671875,57.4375 C48.664059,57.7187514 47.9218789,57.859375 47.140625,57.859375 L47.140625,57.859375 Z" id="rkt-handyman" sketch:type="MSShapeGroup"></path>
        </g>
    </g>
</svg>
