<svg height="512pt" viewBox="0 0 512 512" width="512pt" xmlns="http://www.w3.org/2000/svg"><path d="m226 271c-8.285156 0-15-6.71875-15-15v-211c0-8.269531-6.730469-15-15-15-8.273438 0-15 6.730469-15 15v211c0 8.28125-6.71875 15-15 15-8.285156 0-15-6.71875-15-15v-211c0-24.8125 20.1875-45 45-45s45 20.1875 45 45v211c0 8.28125-6.71875 15-15 15zm0 0" fill="#fdbf00"/><path d="m345.996094 241c-8.28125 0-14.996094-6.71875-14.996094-15 0-24.8125-20.1875-45-45-45-8.285156 0-15-6.71875-15-15 0-8.285156 6.714844-15 15-15 24.8125 0 45-20.1875 45-45 0-8.285156 6.714844-15 14.996094-15 8.285156 0 15 6.714844 15 15 0 24.8125 20.1875 45 45 45 8.285156 0 15 6.714844 15 15 0 8.28125-6.714844 15-15 15-24.8125 0-45 20.1875-45 45 0 8.28125-6.714844 15-15 15zm-15.046875-75c5.699219 4.277344 10.769531 9.347656 15.046875 15.046875 4.28125-5.699219 9.351562-10.769531 15.046875-15.046875-5.695313-4.28125-10.765625-9.351562-15.046875-15.046875-4.277344 5.695313-9.347656 10.765625-15.046875 15.046875zm0 0" fill="#ffd400"/><path d="m435.996094 360.996094c-8.28125 0-15-6.714844-15-15 0-24.8125-20.183594-44.996094-45-44.996094-8.28125 0-15-6.71875-15-15 0-8.285156 6.71875-15 15-15 24.816406 0 45-20.1875 45-45 0-8.285156 6.71875-15 15-15 8.285156 0 15 6.714844 15 15 0 24.390625 21.066406 45 46 45 8.285156 0 15 6.714844 15 15 0 8.28125-6.714844 15-15 15-24.933594 0-46 20.605469-46 44.996094 0 8.285156-6.714844 15-15 15zm-15.046875-74.996094c5.765625 4.328125 10.886719 9.46875 15.199219 15.246094 2.246093-2.945313 4.730468-5.753906 7.4375-8.402344 2.539062-2.480469 5.21875-4.765625 8.019531-6.84375-2.800781-2.082031-5.480469-4.367188-8.019531-6.847656-2.707032-2.648438-5.191407-5.457032-7.4375-8.402344-4.3125 5.78125-9.433594 10.917969-15.199219 15.25zm0 0" fill="#ffd400"/><path d="m106.011719 512c-5.503907 0-10.800781-3.039062-13.429688-8.296875l-3.167969-6.332031c-18.589843-37.179688-28.414062-79.148438-28.414062-121.375 0-8.28125 6.714844-15 15-15s15 6.71875 15 15c0 37.59375 8.730469 74.921875 25.25 107.957031l3.167969 6.335937c3.703125 7.410157.699219 16.421876-6.710938 20.125-2.152343 1.074219-4.441406 1.585938-6.695312 1.585938zm0 0" fill="#ffcebf"/><path d="m346.007812 512c-5.5 0-10.796874-3.039062-13.429687-8.296875l-3.164063-6.332031c-18.589843-37.179688-28.417968-79.148438-28.417968-121.371094 0-8.285156 6.71875-15 15-15 8.285156 0 15 6.714844 15 15 0 37.589844 8.730468 74.921875 25.25 107.957031l3.167968 6.332031c3.703126 7.410157.699219 16.421876-6.710937 20.125-2.152344 1.074219-4.441406 1.585938-6.695313 1.585938zm0 0" fill="#ffcebf"/><path d="m271.007812 512c-5.5 0-10.796874-3.039062-13.425781-8.296875l-3.167969-6.332031c-8.601562-17.203125-15.796874-37.203125-20.808593-57.832032-1.957031-8.050781 2.984375-16.164062 11.035156-18.117187 8.050781-1.957031 16.160156 2.984375 18.117187 11.035156 4.484376 18.472657 10.878907 36.277344 18.488282 51.496094l3.167968 6.335937c3.703126 7.410157.699219 16.417969-6.710937 20.125-2.152344 1.074219-4.441406 1.585938-6.695313 1.585938zm0 0" fill="#ffa78f"/><path d="m181.011719 512c-5.503907 0-10.800781-3.039062-13.429688-8.296875l-3.167969-6.332031c-8.601562-17.203125-15.796874-37.203125-20.808593-57.832032-1.957031-8.050781 2.984375-16.164062 11.035156-18.117187 8.050781-1.957031 16.160156 2.984375 18.117187 11.035156 4.484376 18.472657 10.878907 36.277344 18.488282 51.496094l3.167968 6.335937c3.703126 7.410157.699219 16.417969-6.710937 20.125-2.148437 1.074219-4.4375 1.585938-6.691406 1.585938zm0 0" fill="#ffa78f"/><path d="m496.996094 511.996094h-481.996094c-8.285156 0-15-6.714844-15-15 0-8.28125 6.714844-15 15-15h481.996094c8.285156 0 15 6.71875 15 15 0 8.285156-6.714844 15-15 15zm0 0" fill="#c6e2e7"/><path d="m316 390.996094h-240c-8.285156 0-15-6.714844-15-15v-30c0-24.8125 20.1875-44.996094 45-44.996094s45-20.1875 45-45c0-8.285156 6.714844-15 15-15h60c8.28125 0 15 6.714844 15 15 0 24.8125 20.183594 45 45 45 24.8125 0 45 20.183594 45 44.996094v30c0 8.285156-6.71875 15-15 15zm-225-30h210v-15c0-8.269532-6.730469-14.996094-15-14.996094-36.21875 0-66.523438-25.8125-73.496094-60h-33.011718c-6.96875 34.1875-37.273438 60-73.492188 60-8.273438 0-15 6.726562-15 14.996094zm0 0" fill="#ec5569"/></svg>