<?xml version="1.0" encoding="iso-8859-1"?>
<!-- Generator: Adobe Illustrator 21.0.0, SVG Export Plug-In . SVG Version: 6.00 Build 0)  -->
<svg xmlns="http://www.w3.org/2000/svg" xmlns:xlink="http://www.w3.org/1999/xlink" version="1.1" id="Capa_1" x="0px" y="0px" viewBox="0 0 512 512" style="enable-background:new 0 0 512 512;" xml:space="preserve" width="512" height="512">
<g>
	<g>
		<g>
			<path style="fill:#696453;" d="M74.184,474.303c-1.598,0-3.221-0.257-4.818-0.798c-7.845-2.66-12.049-11.177-9.389-19.022     l23.219-68.477c2.661-7.845,11.177-12.048,19.022-9.389c7.845,2.66,12.049,11.177,9.389,19.022l-23.219,68.477     C86.269,470.365,80.435,474.303,74.184,474.303z"/>
		</g>
		<g>
			<path style="fill:#38362F;" d="M427.376,474.303c-6.252,0-12.086-3.938-14.204-10.187l-23.219-68.477     c-2.66-7.846,1.543-16.362,9.389-19.022c7.846-2.661,16.363,1.543,19.022,9.389l23.219,68.477     c2.66,7.846-1.543,16.362-9.389,19.022C430.598,474.046,428.973,474.303,427.376,474.303z"/>
		</g>
	</g>
	<g>
		<path style="fill:#A85A16;" d="M490.824,122.399h-52.877c-11.695,0-21.176,9.481-21.176,21.175v140.864    c0,11.695-9.481,21.176-21.175,21.176H116.465c-11.695,0-21.175-9.481-21.175-21.176V143.574c0-11.695-9.481-21.175-21.175-21.175    H21.176C9.481,122.399,0,131.879,0,143.574v193.803c0,35.085,28.442,63.527,63.527,63.527h384.382c35,0,63.406-28.31,63.526-63.31    L512,143.636C512.034,131.917,502.543,122.399,490.824,122.399z"/>
		<path style="fill:#8F4300;" d="M490.824,122.399h-52.877c-11.695,0-21.176,9.481-21.176,21.175v140.864    c0,11.695-9.481,21.176-21.175,21.176H256v95.29h191.909c35,0,63.407-28.31,63.526-63.309L512,143.636    C512.034,131.917,502.543,122.399,490.824,122.399z"/>
		<path style="fill:#D17A24;" d="M95.29,249.148V69.46c0-17.542,14.221-31.763,31.763-31.763h257.956    c17.542,0,31.763,14.221,31.763,31.763v179.688H95.29z"/>
		<path style="fill:#A85A16;" d="M385.009,37.697H256v211.451h160.772V69.46C416.772,51.918,402.551,37.697,385.009,37.697z"/>
		<path style="fill:#F2984E;" d="M395.596,305.595H116.465c-11.695,0-21.175-9.481-21.175-21.176v-67.675    c0,0,79.056-24.456,160.741-24.456s160.741,24.456,160.741,24.456v67.675C416.772,296.115,407.291,305.595,395.596,305.595z"/>
		<path style="fill:#D17A24;" d="M256,192.289v113.307h139.596c11.695,0,21.175-9.481,21.175-21.176v-67.676    c0,0-79.056-24.456-160.741-24.456C256.021,192.289,256.01,192.289,256,192.289z"/>
	</g>
	<g>
		<g>
			<g>
				<path style="fill:#A85A16;" d="M196,142.779c-3.95,0-7.82-1.6-10.61-4.4c-2.79-2.79-4.39-6.65-4.39-10.6      c0-3.95,1.6-7.82,4.39-10.61c2.8-2.79,6.66-4.39,10.61-4.39c3.95,0,7.81,1.6,10.61,4.39c2.79,2.79,4.39,6.66,4.39,10.61      c0,3.95-1.6,7.81-4.39,10.6C203.81,141.179,199.95,142.779,196,142.779z"/>
			</g>
			<g>
				<path style="fill:#6E2E07;" d="M316,142.779c-3.95,0-7.81-1.6-10.61-4.4c-2.79-2.79-4.39-6.65-4.39-10.6      c0-3.95,1.6-7.82,4.39-10.61c2.8-2.79,6.66-4.39,10.61-4.39c3.95,0,7.82,1.6,10.61,4.39c2.79,2.79,4.39,6.66,4.39,10.61      c0,3.95-1.6,7.81-4.39,10.6C323.82,141.179,319.95,142.779,316,142.779z"/>
			</g>
		</g>
	</g>
</g>















</svg>
