<svg xmlns="http://www.w3.org/2000/svg" height="512pt" version="1.1" viewBox="0 0 512 512" width="512pt">
<g id="surface1">
<path d="M 512 256 C 512 397.386719 397.386719 512 256 512 C 114.613281 512 0 397.386719 0 256 C 0 114.613281 114.613281 0 256 0 C 397.386719 0 512 114.613281 512 256 Z M 512 256 " style=" stroke:none;fill-rule:nonzero;fill:rgb(99.607843%,41.568627%,8.627451%);fill-opacity:1;" />
<path d="M 512 256 C 512 249.09375 511.71875 242.25 511.179688 235.480469 L 363.296875 87.597656 L 147.105469 422.90625 L 235.367188 511.171875 C 242.175781 511.714844 249.054688 512 256 512 C 397.386719 512 512 397.386719 512 256 Z M 512 256 " style=" stroke:none;fill-rule:nonzero;fill:rgb(94.901961%,27.058824%,0%);fill-opacity:1;" />
<path d="M 347.285156 430.332031 L 164.714844 430.332031 C 151.125 430.332031 140.109375 419.316406 140.109375 405.726562 L 140.109375 106.273438 C 140.109375 92.683594 151.125 81.667969 164.714844 81.667969 L 347.285156 81.667969 C 360.878906 81.667969 371.894531 92.683594 371.894531 106.273438 L 371.894531 405.726562 C 371.894531 419.316406 360.875 430.332031 347.285156 430.332031 Z M 347.285156 430.332031 " style=" stroke:none;fill-rule:nonzero;fill:rgb(25.490196%,28.627451%,32.156863%);fill-opacity:1;" />
<path d="M 347.285156 81.667969 L 255.761719 81.667969 L 255.761719 430.335938 L 347.285156 430.335938 C 360.875 430.335938 371.890625 419.316406 371.890625 405.726562 L 371.890625 106.273438 C 371.894531 92.683594 360.875 81.667969 347.285156 81.667969 Z M 347.285156 81.667969 " style=" stroke:none;fill-rule:nonzero;fill:rgb(20%,22.352941%,25.098039%);fill-opacity:1;" />
<path d="M 301.488281 106.207031 L 298.460938 112.46875 C 296.609375 116.292969 292.734375 118.722656 288.484375 118.722656 L 223.515625 118.722656 C 219.265625 118.722656 215.394531 116.296875 213.542969 112.46875 L 210.511719 106.207031 C 208.664062 102.382812 204.789062 99.953125 200.539062 99.953125 L 167.460938 99.953125 C 161.339844 99.953125 156.378906 104.914062 156.378906 111.03125 L 156.378906 400.96875 C 156.378906 407.085938 161.339844 412.046875 167.460938 412.046875 L 344.539062 412.046875 C 350.660156 412.046875 355.621094 407.085938 355.621094 400.96875 L 355.621094 111.03125 C 355.621094 104.914062 350.660156 99.953125 344.539062 99.953125 L 311.464844 99.953125 C 307.214844 99.953125 303.339844 102.382812 301.488281 106.207031 Z M 301.488281 106.207031 " style=" stroke:none;fill-rule:nonzero;fill:rgb(100%,100%,100%);fill-opacity:1;" />
<path d="M 344.539062 99.953125 L 311.464844 99.953125 C 307.214844 99.953125 303.339844 102.382812 301.488281 106.207031 L 298.460938 112.46875 C 296.609375 116.292969 292.734375 118.722656 288.484375 118.722656 L 255.761719 118.722656 L 255.761719 412.046875 L 344.539062 412.046875 C 350.660156 412.046875 355.621094 407.085938 355.621094 400.96875 L 355.621094 111.03125 C 355.617188 104.914062 350.660156 99.953125 344.539062 99.953125 Z M 344.539062 99.953125 " style=" stroke:none;fill-rule:nonzero;fill:rgb(91.372549%,92.941176%,96.078431%);fill-opacity:1;" />
<path d="M 337.667969 216 C 337.667969 261.101562 301.101562 297.667969 256 297.667969 C 210.898438 297.667969 174.332031 261.101562 174.332031 216 C 174.332031 170.898438 210.898438 134.332031 256 134.332031 C 301.101562 134.332031 337.667969 170.898438 337.667969 216 Z M 337.667969 216 " style=" stroke:none;fill-rule:nonzero;fill:rgb(9.803922%,81.176471%,98.823529%);fill-opacity:1;" />
<path d="M 256 134.332031 C 255.921875 134.332031 255.84375 134.339844 255.761719 134.339844 L 255.761719 297.660156 C 255.84375 297.660156 255.921875 297.664062 256 297.664062 C 301.101562 297.664062 337.667969 261.101562 337.667969 216 C 337.667969 170.894531 301.101562 134.332031 256 134.332031 Z M 256 134.332031 " style=" stroke:none;fill-rule:nonzero;fill:rgb(29.019608%,72.156863%,96.862745%);fill-opacity:1;" />
<path d="M 292.25 193.25 C 292.25 213.269531 276.019531 229.5 256 229.5 C 235.980469 229.5 219.75 213.269531 219.75 193.25 C 219.75 173.230469 235.980469 157 256 157 C 276.019531 157 292.25 173.230469 292.25 193.25 Z M 292.25 193.25 " style=" stroke:none;fill-rule:nonzero;fill:rgb(81.176471%,97.647059%,100%);fill-opacity:1;" />
<path d="M 256 157 C 255.921875 157 255.84375 157.003906 255.761719 157.007812 L 255.761719 229.492188 C 255.84375 229.492188 255.921875 229.5 256 229.5 C 276.019531 229.5 292.25 213.269531 292.25 193.25 C 292.25 173.230469 276.019531 157 256 157 Z M 256 157 " style=" stroke:none;fill-rule:nonzero;fill:rgb(70.980392%,93.72549%,100%);fill-opacity:1;" />
<path d="M 256 297.667969 C 280.195312 297.667969 301.925781 287.136719 316.882812 270.414062 C 307.082031 246.417969 283.523438 229.5 256 229.5 C 228.476562 229.5 204.917969 246.417969 195.117188 270.414062 C 210.074219 287.132812 231.804688 297.667969 256 297.667969 Z M 256 297.667969 " style=" stroke:none;fill-rule:nonzero;fill:rgb(81.176471%,97.647059%,100%);fill-opacity:1;" />
<path d="M 256 229.5 C 255.921875 229.5 255.84375 229.503906 255.761719 229.503906 L 255.761719 297.664062 C 255.84375 297.664062 255.921875 297.664062 256 297.664062 C 280.195312 297.664062 301.925781 287.132812 316.882812 270.414062 C 307.082031 246.417969 283.523438 229.5 256 229.5 Z M 256 229.5 " style=" stroke:none;fill-rule:nonzero;fill:rgb(70.980392%,93.72549%,100%);fill-opacity:1;" />
<path d="M 191.808594 356.164062 L 320.191406 356.164062 L 320.191406 378.164062 L 191.808594 378.164062 Z M 191.808594 356.164062 " style=" stroke:none;fill-rule:nonzero;fill:rgb(56.862745%,58.823529%,66.666667%);fill-opacity:1;" />
<path d="M 255.761719 356.164062 L 320.191406 356.164062 L 320.191406 378.164062 L 255.761719 378.164062 Z M 255.761719 356.164062 " style=" stroke:none;fill-rule:nonzero;fill:rgb(49.411765%,52.156863%,58.823529%);fill-opacity:1;" />
<path d="M 208.9375 323 L 303.0625 323 L 303.0625 345 L 208.9375 345 Z M 208.9375 323 " style=" stroke:none;fill-rule:nonzero;fill:rgb(56.862745%,58.823529%,66.666667%);fill-opacity:1;" />
<path d="M 255.761719 323 L 303.0625 323 L 303.0625 345 L 255.761719 345 Z M 255.761719 323 " style=" stroke:none;fill-rule:nonzero;fill:rgb(49.411765%,52.156863%,58.823529%);fill-opacity:1;" />
</g>
</svg>