<svg viewBox="0 -32 512.002 512" xmlns="http://www.w3.org/2000/svg"><path d="m85.3125 99.503906h27.644531v98.640625h-27.644531zm0 0" fill="#097789"/><path d="m399.039062 99.503906h27.648438v98.640625h-27.648438zm0 0" fill="#097789"/><path d="m412.863281 64.996094h-313.726562v56.367187h313.726562c15.566407 0 28.183594-12.617187 28.183594-28.183593 0-15.566407-12.617187-28.183594-28.183594-28.183594zm0 0" fill="#1a94af"/><path d="m458.335938 188.882812h-90.941407c-2.179687 0-4.304687.691407-6.066406 1.976563l-47.597656 34.691406v185.890625h177.667969c11.378906 0 20.605468-9.222656 20.605468-20.601562v-160.050782c0-3.292968-1.574218-6.386718-4.234375-8.324218l-43.367187-31.609375c-1.761719-1.28125-3.886719-1.972657-6.066406-1.972657zm0 0" fill="#f4810e"/><path d="m512 235.851562v154.992188c0 11.382812-9.21875 20.601562-20.605469 20.601562h-334.765625v-185.894531h345.070313c5.6875 0 10.300781 4.613281 10.300781 10.300781zm0 0" fill="#ffbd48"/><path d="m464.136719 306.46875c-16.976563-16.976562-39.535157-26.320312-63.539063-26.320312-3.957031 0-7.945312.257812-11.847656.785156-.660156.082031-1.320312.121094-1.96875.121094-4.039062 0-8.003906-1.65625-10.898438-4.550782l-50.953124-50.953125h-137.746094l119.820312 119.820313c3.429688 3.429687 5.027344 8.238281 4.390625 13.195312-2.371093 18.390625 1.050781 36.820313 9.382813 52.878906h159.648437c6.292969-12.105468 9.753907-25.589843 10.023438-39.671874.472656-24.671876-8.871094-47.863282-26.3125-65.304688zm-42.96875 75.140625-1.914063 7.140625-7.128906 1.90625-5.222656 5.222656-7.128906-1.90625-7.128907 1.90625-5.214843-5.222656-7.128907-1.90625-1.914062-7.140625-5.226563-5.222656 1.90625-7.117188-1.914062-7.128906 5.222656-5.222656 1.914062-7.140625 7.132813-1.902344 5.222656-5.226562 7.128907 1.90625 7.117187-1.90625 5.234375 5.234374 7.128906 1.90625 1.914063 7.140626 5.214843 5.210937-1.90625 7.121094 1.914063 7.128906zm0 0" fill="#ff9c26"/><path d="m127.316406 93.179688c0 15.566406-12.617187 28.183593-28.179687 28.183593-15.566407 0-28.183594-12.617187-28.183594-28.183593 0-15.566407 12.617187-28.183594 28.183594-28.183594 15.5625 0 28.179687 12.617187 28.179687 28.183594zm0 0" fill="#62bce0"/><path d="m222.992188 227.609375v163.230469c0 11.386718-9.21875 20.605468-20.601563 20.605468h-181.785156c-11.386719 0-20.605469-9.21875-20.605469-20.605468v-160.046875c0-3.296875 1.574219-6.386719 4.234375-8.335938l43.371094-31.59375c1.761719-1.289062 3.882812-1.980469 6.066406-1.980469h117.699219c.855468 0 1.6875.269532 2.390625.785157l47.5625 34.664062c1.050781.765625 1.667969 1.980469 1.667969 3.277344zm0 0" fill="#ffdf4a"/><path d="m222.992188 227.609375v33.75l-69.949219-69.949219c-.875-.875-1.78125-1.722656-2.71875-2.523437h21.046875c.855468 0 1.6875.265625 2.390625.78125l47.5625 34.667969c1.050781.761718 1.667969 1.976562 1.667969 3.273437zm0 0" fill="#ffbd48"/><path d="m480.332031 262.554688h-20.949219c-4.265624 0-7.726562-3.460938-7.726562-7.726563s3.460938-7.726563 7.726562-7.726563h20.949219c4.265625 0 7.726563 3.460938 7.726563 7.726563s-3.457032 7.726563-7.726563 7.726563zm0 0" fill="#1a94af"/><path d="m480.332031 281.953125h-20.949219c-4.265624 0-7.726562-3.460937-7.726562-7.726563 0-4.269531 3.460938-7.726562 7.726562-7.726562h20.949219c4.265625 0 7.726563 3.457031 7.726563 7.726562 0 4.265626-3.457032 7.726563-7.726563 7.726563zm0 0" fill="#1a94af"/><path d="m145.925781 299.058594h-65.933593c-5.6875 0-10.300782-4.609375-10.300782-10.300782v-19.351562c0-5.691406 4.613282-10.300781 10.300782-10.300781h65.933593c5.6875 0 10.300781 4.609375 10.300781 10.300781v19.351562c0 5.691407-4.613281 10.300782-10.300781 10.300782zm0 0" fill="#d1ede7"/><path d="m367.140625 285.242188-156.726563-156.722657c-12.796874-12.796875-19.335937-30.511719-18.148437-48.570312 1.746094-26.554688-8.851563-52.21875-30.609375-67.371094-24.738281-17.234375-57.210938-16.21875-83.5625-.25-3.414062 2.070313-3.046875 7.15625.59375 8.800781l37.089844 16.710938c9.617187 4.320312 13.902344 15.640625 9.570312 25.246094l-17.960937 39.878906c-4.320313 9.613281-15.632813 13.910156-25.25 9.566406l-41.183594-18.535156c-3.484375-1.570313-7.414063 1.203125-7.03125 5.007812 2.140625 21.332032 12.503906 40.910156 30.394531 53.382813 14.199219 9.878906 30.933594 13.753906 47.59375 12.242187 18.484375-1.671875 36.753906 4.921875 49.878906 18.042969l153.957032 153.960937c6.171875 6.167969 9.023437 14.859376 7.910156 23.511719-3.105469 24.121094 5.128906 49.414063 24.710938 67.269531 29.53125 26.9375 75.507812 26.746094 104.832031-.417968 32.460937-30.070313 33.191406-80.785156 2.191406-111.785156-17.742187-17.742188-41.9375-25.082032-65.023437-22.023438-8.550782 1.128906-17.128907-1.847656-23.226563-7.945312zm65.109375 65.28125 7.914062 7.917968-2.886718 10.816406 2.898437 10.828126-7.925781 7.929687-2.902344 10.828125-10.828125 2.898438-7.925781 7.929687-10.828125-2.902344-10.816406 2.890625-7.917969-7.917968-10.828125-2.902344-2.898437-10.828125-7.929688-7.925781 2.890625-10.816407-2.902344-10.828125 7.929688-7.925781 2.898437-10.828125 10.828125-2.902344 7.929688-7.925781 10.828125 2.898437 10.816406-2.886718 7.925781 7.925781 10.828125 2.902344zm0 0" fill="#abddd4"/><path d="m297.476562 281.101562-98.832031-98.832031c-4.382812-4.382812-4.382812-11.492187 0-15.878906 4.386719-4.382813 11.496094-4.382813 15.878907 0l98.832031 98.832031c4.382812 4.382813 4.382812 11.492188 0 15.878906-4.386719 4.382813-11.496094 4.382813-15.878907 0zm0 0" fill="#1a94af"/></svg>